<svg width="4400" height="1091" xmlns="http://www.w3.org/2000/svg" xmlns:xlink="http://www.w3.org/1999/xlink" xml:space="preserve" overflow="hidden"><defs><clipPath id="clip0"><rect x="0" y="559" width="4400" height="1091"/></clipPath><clipPath id="clip1"><rect x="0" y="559" width="4400" height="1091"/></clipPath></defs><g clip-path="url(#clip0)" transform="matrix(1 0 0 1 0 -559)"><g clip-path="url(#clip1)"><path d="M0 744.168C-3.50112e-14 644.112 81.1117 563 181.168 563L4218.83 563C4318.89 563 4400 644.112 4400 744.168L4400 1468.83C4400 1568.89 4318.89 1650 4218.83 1650L181.168 1650C81.1117 1650 0 1568.89 0 1468.83Z" fill="#F2F2F2" fill-rule="evenodd" fill-opacity="1"/><path d="M73.5001 940.375C73.5001 962.397 144.911 980.25 233 980.25 321.089 980.25 392.5 962.397 392.5 940.375L392.5 1336.62C392.5 1358.65 321.089 1376.5 233 1376.5 144.911 1376.5 73.5001 1358.65 73.5001 1336.62Z" fill="#156082" fill-rule="evenodd" fill-opacity="1"/><path d="M73.5001 940.375C73.5001 918.353 144.911 900.5 233 900.5 321.089 900.5 392.5 918.353 392.5 940.375 392.5 962.397 321.089 980.25 233 980.25 144.911 980.25 73.5001 962.397 73.5001 940.375Z" fill="#73A0B4" fill-rule="evenodd" fill-opacity="1"/><path d="M392.5 940.375C392.5 962.397 321.089 980.25 233 980.25 144.911 980.25 73.5001 962.397 73.5001 940.375 73.5001 918.353 144.911 900.5 233 900.5 321.089 900.5 392.5 918.353 392.5 940.375L392.5 1336.62C392.5 1358.65 321.089 1376.5 233 1376.5 144.911 1376.5 73.5001 1358.65 73.5001 1336.62L73.5001 940.375" stroke="#042433" stroke-width="6.875" stroke-linecap="butt" stroke-linejoin="miter" stroke-miterlimit="8" stroke-opacity="1" fill="none" fill-rule="evenodd"/><text fill="#FFFFFF" fill-opacity="1" font-family="Arial,Arial_MSFontService,sans-serif" font-style="normal" font-variant="normal" font-weight="400" font-stretch="normal" font-size="83" text-anchor="start" direction="ltr" writing-mode="lr-tb" unicode-bidi="normal" text-decoration="none" transform="matrix(1 0 0 1 145.323 1188)">Data</text><path d="M613.5 774.167C613.5 759.991 624.992 748.5 639.167 748.5L1360.83 748.5C1375.01 748.5 1386.5 759.991 1386.5 774.167L1386.5 876.833C1386.5 891.008 1375.01 902.5 1360.83 902.5L639.167 902.5C624.992 902.5 613.5 891.008 613.5 876.833Z" stroke="#FF0000" stroke-width="6.875" stroke-linecap="butt" stroke-linejoin="miter" stroke-miterlimit="8" stroke-opacity="1" fill="#FF0000" fill-rule="evenodd" fill-opacity="0.0941176"/><text fill="#000000" fill-opacity="1" font-family="Arial,Arial_MSFontService,sans-serif" font-style="normal" font-variant="normal" font-weight="400" font-stretch="normal" font-size="83" text-anchor="start" direction="ltr" writing-mode="lr-tb" unicode-bidi="normal" text-decoration="none" transform="matrix(1 0 0 1 779.566 855)">Clustering 1</text><path d="M613.5 1193.17C613.5 1178.99 624.992 1167.5 639.167 1167.5L1360.83 1167.5C1375.01 1167.5 1386.5 1178.99 1386.5 1193.17L1386.5 1295.83C1386.5 1310.01 1375.01 1321.5 1360.83 1321.5L639.167 1321.5C624.992 1321.5 613.5 1310.01 613.5 1295.83Z" stroke="#7F7F7F" stroke-width="6.875" stroke-linecap="butt" stroke-linejoin="miter" stroke-miterlimit="8" stroke-opacity="1" fill="#000000" fill-rule="evenodd" fill-opacity="0.0509804"/><text fill="#000000" fill-opacity="1" font-family="Arial,Arial_MSFontService,sans-serif" font-style="normal" font-variant="normal" font-weight="400" font-stretch="normal" font-size="83" text-anchor="start" direction="ltr" writing-mode="lr-tb" unicode-bidi="normal" text-decoration="none" transform="matrix(1 0 0 1 958.316 1274)">…</text><path d="M613.5 983.167C613.5 968.991 624.992 957.5 639.167 957.5L1360.83 957.5C1375.01 957.5 1386.5 968.991 1386.5 983.167L1386.5 1085.83C1386.5 1100.01 1375.01 1111.5 1360.83 1111.5L639.167 1111.5C624.992 1111.5 613.5 1100.01 613.5 1085.83Z" stroke="#FFC000" stroke-width="6.875" stroke-linecap="butt" stroke-linejoin="miter" stroke-miterlimit="8" stroke-opacity="1" fill="#FFC000" fill-rule="evenodd" fill-opacity="0.2"/><text fill="#000000" fill-opacity="1" font-family="Arial,Arial_MSFontService,sans-serif" font-style="normal" font-variant="normal" font-weight="400" font-stretch="normal" font-size="83" text-anchor="start" direction="ltr" writing-mode="lr-tb" unicode-bidi="normal" text-decoration="none" transform="matrix(1 0 0 1 779.566 1065)">Clustering 2</text><path d="M613.5 1402.17C613.5 1387.99 624.992 1376.5 639.167 1376.5L1360.83 1376.5C1375.01 1376.5 1386.5 1387.99 1386.5 1402.17L1386.5 1504.83C1386.5 1519.01 1375.01 1530.5 1360.83 1530.5L639.167 1530.5C624.992 1530.5 613.5 1519.01 613.5 1504.83Z" stroke="#00B050" stroke-width="6.875" stroke-linecap="butt" stroke-linejoin="miter" stroke-miterlimit="8" stroke-opacity="1" fill="#00B050" fill-rule="evenodd" fill-opacity="0.2"/><text fill="#000000" fill-opacity="1" font-family="Arial,Arial_MSFontService,sans-serif" font-style="normal" font-variant="normal" font-weight="400" font-stretch="normal" font-size="83" text-anchor="start" direction="ltr" writing-mode="lr-tb" unicode-bidi="normal" text-decoration="none" transform="matrix(1 0 0 1 779.566 1483)">Clustering n</text><path d="M613.5 1470.5C552.473 1470.5 503 1462.25 503 1452.08L503 1160.08C503 1149.91 453.528 1141.67 392.5 1141.67 453.528 1141.67 503 1133.42 503 1123.25L503 843.916C503 833.745 552.473 825.5 613.5 825.5" stroke="#404040" stroke-width="6.875" stroke-linecap="butt" stroke-linejoin="miter" stroke-miterlimit="8" stroke-opacity="1" fill="none" fill-rule="evenodd"/><path d="M613.5 1246.5C552.473 1246.5 503 1238.67 503 1229L503 1156.94C503 1147.27 453.528 1139.44 392.5 1139.44 453.528 1139.44 503 1131.6 503 1121.94L503 1054C503 1044.33 552.473 1036.5 613.5 1036.5" stroke="#404040" stroke-width="6.875" stroke-linecap="butt" stroke-linejoin="miter" stroke-miterlimit="8" stroke-opacity="1" fill="none" fill-rule="evenodd"/><path d="M1386.5 818.5C1447.8 818.5 1497.5 826.782 1497.5 836.999L1497.5 1129.34C1497.5 1139.56 1547.2 1147.84 1608.5 1147.84 1547.2 1147.84 1497.5 1156.13 1497.5 1166.34L1497.5 1446C1497.5 1456.22 1447.8 1464.5 1386.5 1464.5" stroke="#404040" stroke-width="6.875" stroke-linecap="butt" stroke-linejoin="miter" stroke-miterlimit="8" stroke-opacity="1" fill="none" fill-rule="evenodd"/><path d="M1386.5 1043.5C1447.8 1043.5 1497.5 1051.3 1497.5 1060.92L1497.5 1132.64C1497.5 1142.26 1547.2 1150.05 1608.5 1150.05 1547.2 1150.05 1497.5 1157.85 1497.5 1167.47L1497.5 1235.08C1497.5 1244.7 1447.8 1252.5 1386.5 1252.5" stroke="#404040" stroke-width="6.875" stroke-linecap="butt" stroke-linejoin="miter" stroke-miterlimit="8" stroke-opacity="1" fill="none" fill-rule="evenodd"/><path d="M1712 1476C1675.55 1476 1646 1473.54 1646 1470.5L1646 823.5C1646 820.463 1675.55 818 1712 818" stroke="#000000" stroke-width="10.3125" stroke-linecap="butt" stroke-linejoin="miter" stroke-miterlimit="8" stroke-opacity="1" fill="none" fill-rule="evenodd"/><text fill="#FF0000" fill-opacity="1" font-family="Arial,Arial_MSFontService,sans-serif" font-style="normal" font-variant="normal" font-weight="400" font-stretch="normal" font-size="73" text-anchor="start" direction="ltr" writing-mode="lr-tb" unicode-bidi="normal" text-decoration="none" transform="matrix(1 0 0 1 1738.61 939)">C</text><text fill="#FF0000" fill-opacity="1" font-family="Arial,Arial_MSFontService,sans-serif" font-style="normal" font-variant="normal" font-weight="400" font-stretch="normal" font-size="49" text-anchor="start" direction="ltr" writing-mode="lr-tb" unicode-bidi="normal" text-decoration="none" transform="matrix(1 0 0 1 1791.32 956)">1,1</text><text fill="#FF0000" fill-opacity="1" font-family="Arial,Arial_MSFontService,sans-serif" font-style="normal" font-variant="normal" font-weight="400" font-stretch="normal" font-size="73" text-anchor="start" direction="ltr" writing-mode="lr-tb" unicode-bidi="normal" text-decoration="none" transform="matrix(1 0 0 1 1738.61 1113)">C</text><text fill="#FF0000" fill-opacity="1" font-family="Arial,Arial_MSFontService,sans-serif" font-style="normal" font-variant="normal" font-weight="400" font-stretch="normal" font-size="49" text-anchor="start" direction="ltr" writing-mode="lr-tb" unicode-bidi="normal" text-decoration="none" transform="matrix(1 0 0 1 1791.32 1130)">1,2</text><text fill="#FF0000" fill-opacity="1" font-family="Arial,Arial_MSFontService,sans-serif" font-style="normal" font-variant="normal" font-weight="400" font-stretch="normal" font-size="73" text-anchor="start" direction="ltr" writing-mode="lr-tb" unicode-bidi="normal" text-decoration="none" transform="matrix(1 0 0 1 1762.1 1279)">…</text><text fill="#FF0000" fill-opacity="1" font-family="Arial,Arial_MSFontService,sans-serif" font-style="normal" font-variant="normal" font-weight="400" font-stretch="normal" font-size="73" text-anchor="start" direction="ltr" writing-mode="lr-tb" unicode-bidi="normal" text-decoration="none" transform="matrix(1 0 0 1 1739.44 1415)">C</text><text fill="#FF0000" fill-opacity="1" font-family="Arial,Arial_MSFontService,sans-serif" font-style="normal" font-variant="normal" font-weight="400" font-stretch="normal" font-size="49" text-anchor="start" direction="ltr" writing-mode="lr-tb" unicode-bidi="normal" text-decoration="none" transform="matrix(1 0 0 1 1792.15 1432)">1,n</text><text fill="#FFC000" fill-opacity="1" font-family="Arial,Arial_MSFontService,sans-serif" font-style="normal" font-variant="normal" font-weight="400" font-stretch="normal" font-size="73" text-anchor="start" direction="ltr" writing-mode="lr-tb" unicode-bidi="normal" text-decoration="none" transform="matrix(1 0 0 1 1927.15 939)">C</text><text fill="#FFC000" fill-opacity="1" font-family="Arial,Arial_MSFontService,sans-serif" font-style="normal" font-variant="normal" font-weight="400" font-stretch="normal" font-size="49" text-anchor="start" direction="ltr" writing-mode="lr-tb" unicode-bidi="normal" text-decoration="none" transform="matrix(1 0 0 1 1979.85 956)">2,1</text><text fill="#FFC000" fill-opacity="1" font-family="Arial,Arial_MSFontService,sans-serif" font-style="normal" font-variant="normal" font-weight="400" font-stretch="normal" font-size="73" text-anchor="start" direction="ltr" writing-mode="lr-tb" unicode-bidi="normal" text-decoration="none" transform="matrix(1 0 0 1 1927.15 1113)">C</text><text fill="#FFC000" fill-opacity="1" font-family="Arial,Arial_MSFontService,sans-serif" font-style="normal" font-variant="normal" font-weight="400" font-stretch="normal" font-size="49" text-anchor="start" direction="ltr" writing-mode="lr-tb" unicode-bidi="normal" text-decoration="none" transform="matrix(1 0 0 1 1979.85 1130)">2,2</text><text fill="#FFC000" fill-opacity="1" font-family="Arial,Arial_MSFontService,sans-serif" font-style="normal" font-variant="normal" font-weight="400" font-stretch="normal" font-size="73" text-anchor="start" direction="ltr" writing-mode="lr-tb" unicode-bidi="normal" text-decoration="none" transform="matrix(1 0 0 1 1950.64 1279)">…</text><text fill="#FFC000" fill-opacity="1" font-family="Arial,Arial_MSFontService,sans-serif" font-style="normal" font-variant="normal" font-weight="400" font-stretch="normal" font-size="73" text-anchor="start" direction="ltr" writing-mode="lr-tb" unicode-bidi="normal" text-decoration="none" transform="matrix(1 0 0 1 1927.98 1415)">C</text><text fill="#FFC000" fill-opacity="1" font-family="Arial,Arial_MSFontService,sans-serif" font-style="normal" font-variant="normal" font-weight="400" font-stretch="normal" font-size="49" text-anchor="start" direction="ltr" writing-mode="lr-tb" unicode-bidi="normal" text-decoration="none" transform="matrix(1 0 0 1 1980.69 1432)">2,n</text><text fill="#000000" fill-opacity="1" font-family="Arial,Arial_MSFontService,sans-serif" font-style="normal" font-variant="normal" font-weight="400" font-stretch="normal" font-size="73" text-anchor="start" direction="ltr" writing-mode="lr-tb" unicode-bidi="normal" text-decoration="none" transform="matrix(1 0 0 1 2105.04 939)">…</text><text fill="#000000" fill-opacity="1" font-family="Arial,Arial_MSFontService,sans-serif" font-style="normal" font-variant="normal" font-weight="400" font-stretch="normal" font-size="73" text-anchor="start" direction="ltr" writing-mode="lr-tb" unicode-bidi="normal" text-decoration="none" transform="matrix(1 0 0 1 2105.04 1113)">…</text><text fill="#000000" fill-opacity="1" font-family="Arial,Arial_MSFontService,sans-serif" font-style="normal" font-variant="normal" font-weight="400" font-stretch="normal" font-size="73" text-anchor="start" direction="ltr" writing-mode="lr-tb" unicode-bidi="normal" text-decoration="none" transform="matrix(1 0 0 1 2105.04 1279)">…</text><text fill="#000000" fill-opacity="1" font-family="Arial,Arial_MSFontService,sans-serif" font-style="normal" font-variant="normal" font-weight="400" font-stretch="normal" font-size="73" text-anchor="start" direction="ltr" writing-mode="lr-tb" unicode-bidi="normal" text-decoration="none" transform="matrix(1 0 0 1 2105.87 1415)">…</text><text fill="#00B050" fill-opacity="1" font-family="Arial,Arial_MSFontService,sans-serif" font-style="normal" font-variant="normal" font-weight="400" font-stretch="normal" font-size="73" text-anchor="start" direction="ltr" writing-mode="lr-tb" unicode-bidi="normal" text-decoration="none" transform="matrix(1 0 0 1 2254.95 939)">C</text><text fill="#00B050" fill-opacity="1" font-family="Arial,Arial_MSFontService,sans-serif" font-style="normal" font-variant="normal" font-weight="400" font-stretch="normal" font-size="49" text-anchor="start" direction="ltr" writing-mode="lr-tb" unicode-bidi="normal" text-decoration="none" transform="matrix(1 0 0 1 2307.66 956)">n,1</text><text fill="#00B050" fill-opacity="1" font-family="Arial,Arial_MSFontService,sans-serif" font-style="normal" font-variant="normal" font-weight="400" font-stretch="normal" font-size="73" text-anchor="start" direction="ltr" writing-mode="lr-tb" unicode-bidi="normal" text-decoration="none" transform="matrix(1 0 0 1 2254.95 1113)">C</text><text fill="#00B050" fill-opacity="1" font-family="Arial,Arial_MSFontService,sans-serif" font-style="normal" font-variant="normal" font-weight="400" font-stretch="normal" font-size="49" text-anchor="start" direction="ltr" writing-mode="lr-tb" unicode-bidi="normal" text-decoration="none" transform="matrix(1 0 0 1 2307.66 1130)">n,2</text><text fill="#00B050" fill-opacity="1" font-family="Arial,Arial_MSFontService,sans-serif" font-style="normal" font-variant="normal" font-weight="400" font-stretch="normal" font-size="73" text-anchor="start" direction="ltr" writing-mode="lr-tb" unicode-bidi="normal" text-decoration="none" transform="matrix(1 0 0 1 2278.44 1279)">…</text><text fill="#00B050" fill-opacity="1" font-family="Arial,Arial_MSFontService,sans-serif" font-style="normal" font-variant="normal" font-weight="400" font-stretch="normal" font-size="73" text-anchor="start" direction="ltr" writing-mode="lr-tb" unicode-bidi="normal" text-decoration="none" transform="matrix(1 0 0 1 2255.78 1415)">C</text><text fill="#00B050" fill-opacity="1" font-family="Arial,Arial_MSFontService,sans-serif" font-style="normal" font-variant="normal" font-weight="400" font-stretch="normal" font-size="49" text-anchor="start" direction="ltr" writing-mode="lr-tb" unicode-bidi="normal" text-decoration="none" transform="matrix(1 0 0 1 2308.49 1432)">n,n</text><path d="M2390 825C2426.45 825 2456 827.462 2456 830.5L2456 1477.5C2456 1480.54 2426.45 1483 2390 1483" stroke="#000000" stroke-width="10.3125" stroke-linecap="butt" stroke-linejoin="miter" stroke-miterlimit="8" stroke-opacity="1" fill="none" fill-rule="evenodd"/><text fill="#747474" fill-opacity="1" font-family="Arial,Arial_MSFontService,sans-serif" font-style="italic" font-variant="normal" font-weight="400" font-stretch="normal" font-size="83" text-anchor="start" direction="ltr" writing-mode="lr-tb" unicode-bidi="normal" text-decoration="none" transform="matrix(1 0 0 1 1759.54 784)">Solutions</text><text fill="#747474" fill-opacity="1" font-family="Arial,Arial_MSFontService,sans-serif" font-style="normal" font-variant="normal" font-weight="400" font-stretch="normal" font-size="83" text-anchor="start" direction="ltr" writing-mode="lr-tb" unicode-bidi="normal" text-decoration="none" transform="matrix(1 0 0 1 2121.62 784)">Matrix</text><text fill="#747474" fill-opacity="1" font-family="Arial,Arial_MSFontService,sans-serif" font-style="italic" font-variant="normal" font-weight="400" font-stretch="normal" font-size="83" text-anchor="start" direction="ltr" writing-mode="lr-tb" unicode-bidi="normal" text-decoration="none" transform="matrix(1 0 0 1 628.997 712)">Clustering</text><text fill="#747474" fill-opacity="1" font-family="Arial,Arial_MSFontService,sans-serif" font-style="italic" font-variant="normal" font-weight="400" font-stretch="normal" font-size="83" text-anchor="start" direction="ltr" writing-mode="lr-tb" unicode-bidi="normal" text-decoration="none" transform="matrix(1 0 0 1 1023.16 712)">Solutions</text><path d="M3413.5 1008.17C3413.5 971.348 3443.35 941.5 3480.17 941.5L4229.83 941.5C4266.65 941.5 4296.5 971.348 4296.5 1008.17L4296.5 1274.83C4296.5 1311.65 4266.65 1341.5 4229.83 1341.5L3480.17 1341.5C3443.35 1341.5 3413.5 1311.65 3413.5 1274.83Z" stroke="#1C440D" stroke-width="6.875" stroke-linecap="butt" stroke-linejoin="miter" stroke-miterlimit="8" stroke-opacity="1" fill="#4EA72E" fill-rule="evenodd" fill-opacity="1"/><text fill="#FFFFFF" fill-opacity="1" font-family="Arial,Arial_MSFontService,sans-serif" font-style="normal" font-variant="normal" font-weight="400" font-stretch="normal" font-size="83" text-anchor="start" direction="ltr" writing-mode="lr-tb" unicode-bidi="normal" text-decoration="none" transform="matrix(1 0 0 1 3485.76 1271)">Consensus Clusters</text><path d="M2522.5 1132.5 3364.5 1132.5 3364.5 1123.5 3382.5 1141.5 3364.5 1159.5 3364.5 1150.5 2522.5 1150.5Z" stroke="#404040" stroke-width="6.875" stroke-linecap="butt" stroke-linejoin="miter" stroke-miterlimit="8" stroke-opacity="1" fill="#404040" fill-rule="evenodd" fill-opacity="1"/><rect x="2718.25" y="995.25" width="399.5" height="292.5" fill="#A02B93" fill-opacity="1"/><path d="M2669.5 946.5 3166.5 946.5 3117.75 995.25 2718.25 995.25Z" fill="#B355A8" fill-rule="evenodd" fill-opacity="1"/><path d="M2669.5 1336.5 2718.25 1287.75 3117.75 1287.75 3166.5 1336.5Z" fill="#812376" fill-rule="evenodd" fill-opacity="1"/><path d="M2669.5 946.5 2718.25 995.25 2718.25 1287.75 2669.5 1336.5Z" fill="#C680BE" fill-rule="evenodd" fill-opacity="1"/><path d="M3166.5 946.5 3166.5 1336.5 3117.75 1287.75 3117.75 995.25Z" fill="#601A58" fill-rule="evenodd" fill-opacity="1"/><path d="M2669.5 946.5 3166.5 946.5 3166.5 1336.5 2669.5 1336.5ZM2718.25 995.25 3117.75 995.25 3117.75 1287.75 2718.25 1287.75ZM2669.5 946.5 2718.25 995.25M2669.5 1336.5 2718.25 1287.75M3166.5 946.5 3117.75 995.25M3166.5 1336.5 3117.75 1287.75" stroke="#410C3B" stroke-width="6.875" stroke-linecap="butt" stroke-linejoin="miter" stroke-miterlimit="8" stroke-opacity="1" fill="none" fill-rule="evenodd"/><text fill="#FFFFFF" fill-opacity="1" font-family="Helvetica,Helvetica_MSFontService,sans-serif" font-style="normal" font-variant="normal" font-weight="700" font-stretch="normal" font-size="83" text-anchor="start" direction="ltr" writing-mode="lr-tb" unicode-bidi="normal" text-decoration="none" transform="matrix(1 0 0 1 2754.89 1168)">ccHBGF</text><g><g><g><path d="M239.948 105.577C235.149 94.0031 221.881 88.6395 210.307 93.4385 200.709 97.3906 195.063 107.553 196.475 117.433L160.059 132.677C156.107 125.902 149.05 120.821 141.146 119.409L141.146 80.1708C150.744 77.6302 158.083 68.8791 158.083 58.4343 158.083 46.0135 147.921 35.851 135.5 35.851 123.079 35.851 112.917 46.0135 112.917 58.4343 112.917 68.8791 120.256 77.6302 129.854 80.1708L129.854 119.127C121.668 120.538 114.893 125.62 110.941 132.395L74.525 117.151C75.9364 107.271 70.5729 97.1083 60.6927 93.1562 49.1187 88.3572 35.851 93.7208 31.0521 105.295 26.2531 116.869 31.6167 130.136 43.1906 134.935 52.7885 138.887 63.7979 135.782 69.726 127.596L106.988 142.84C106.706 143.969 106.706 145.38 106.706 146.509 106.706 152.72 108.682 158.648 112.352 163.447L82.9937 193.087C74.2427 188.006 62.951 189.135 55.6114 196.475 46.8604 205.226 46.8604 219.623 55.6114 228.374 64.3625 237.125 78.7593 237.125 87.5104 228.374 94.85 221.034 95.9791 209.743 90.8979 200.992L120.821 171.069C125.055 173.609 129.854 175.021 134.935 175.021 135.218 175.021 135.218 175.021 135.5 175.021 135.782 175.021 135.782 175.021 136.065 175.021 141.146 175.021 145.945 173.609 150.179 171.069L180.102 200.992C175.021 209.743 176.15 221.034 183.49 228.656 192.241 237.407 206.637 237.407 215.388 228.656 224.139 219.905 224.139 205.508 215.388 196.757 208.049 189.418 196.757 188.288 188.006 193.37L158.648 163.729C162.318 158.93 164.294 153.284 164.294 146.792 164.294 145.662 164.294 144.251 164.011 143.122L201.274 127.878C207.202 135.782 218.211 139.17 227.809 135.218 239.101 130.136 244.747 117.151 239.948 105.577Z" fill="#262626" fill-rule="nonzero" fill-opacity="1" transform="matrix(1 0 0 1 3719 943)"/></g></g></g></g></g></svg>